<?xml version="1.0" standalone="no"?>
<!DOCTYPE svg PUBLIC "-//W3C//DTD SVG 20010904//EN"
 "http://www.w3.org/TR/2001/REC-SVG-20010904/DTD/svg10.dtd">
<svg version="1.0" xmlns="http://www.w3.org/2000/svg"
 width="225.000000pt" height="225.000000pt" viewBox="0 0 225.000000 225.000000"
 preserveAspectRatio="xMidYMid meet">

<g transform="translate(0.000000,225.000000) scale(0.100000,-0.100000)"
fill="#000000" stroke="none">
<path d="M1690 1859 c-14 -5 -190 -175 -392 -377 l-368 -367 -172 172 c-107
106 -183 174 -200 178 -15 4 -42 2 -60 -4 -44 -15 -296 -266 -307 -306 -19
-71 -12 -79 346 -437 l339 -338 54 0 55 0 542 543 543 542 0 46 c0 35 -7 56
-28 85 -38 52 -258 264 -274 264 -7 0 -22 2 -33 5 -11 2 -31 0 -45 -6z m-262
-836 l-498 -498 -100 100 -100 100 497 497 498 498 100 -100 100 -100 -497
-497z m-693 -103 l-100 -100 -150 150 -150 150 100 100 100 100 150 -150 150
-150 -100 -100z"/>
</g>
</svg>
